<svg width="119" height="69" viewBox="0 0 119 69" fill="none" xmlns="http://www.w3.org/2000/svg">
<path d="M23.5071 38.5886C23.5071 38.5886 26.8884 36.2478 29.4893 36.2478C32.0903 36.2478 35.4715 40.4093 35.4715 40.4093C35.4715 40.4093 36.2518 44.3107 35.4715 46.1314C34.6912 47.9521 32.8705 48.4722 31.0499 49.5126C29.2292 50.553 25.848 49.5126 25.848 49.5126L21.9466 46.1314C21.9466 46.1314 21.1216 43.9629 21.4264 42.49C21.7311 41.0172 23.5071 38.5886 23.5071 38.5886Z" fill="#FF7575"/>
<path d="M90.8717 36.2478H95.2933L98.6746 38.8487L100.235 41.4497V45.091L99.1948 47.4318L96.0736 49.5126H90.8717L89.3112 48.4722L86.9703 46.1314L85.9299 44.3107V41.4497L86.9703 38.8487L89.3112 37.028L90.8717 36.2478Z" fill="#FF7575"/>
<path d="M54.4584 49.5126C50.0368 53.1539 55.2728 54.0466 58.62 50.8131C61.8662 53.2308 68.1651 54.2459 64.0819 49.5126M19.8658 21.9425C18.652 19.6884 18.3052 12.0589 19.8658 4.51619C19.8658 4.51619 34.9513 16.7406 37.0321 16.7406C39.1128 16.7406 50.557 15.9604 50.557 15.9604L60.1805 11.0186L58.62 15.9604L64.0819 12.0589L62.5214 15.9604L66.4228 13.6195L65.3824 16.7406C65.3824 16.7406 80.2078 18.3012 81.5083 18.0411C82.8088 17.781 95.0333 8.67771 95.2933 4.51619C95.5534 0.354667 99.1948 22.7228 99.1948 22.7228C99.1948 22.7228 103.429 28.1849 107.518 43.0102L112.98 49.5126H108.038L112.98 54.4544H108.038L113.5 59.1361H104.917L8.68171 64.8582L4 65.6385L7.90143 58.6159L5.82067 59.1361L9.462 53.414L4.52019 53.9342L9.462 46.1314L19.8658 21.9425ZM23.5071 38.5886C23.5071 38.5886 26.8884 36.2478 29.4893 36.2478C32.0903 36.2478 35.4715 40.4093 35.4715 40.4093C35.4715 40.4093 36.2518 44.3107 35.4715 46.1314C34.6912 47.9521 32.8705 48.4722 31.0499 49.5126C29.2292 50.553 25.848 49.5126 25.848 49.5126L21.9466 46.1314C21.9466 46.1314 21.1216 43.9629 21.4264 42.49C21.7311 41.0172 23.5071 38.5886 23.5071 38.5886ZM90.8717 36.2478H95.2933L98.6746 38.8487L100.235 41.4497V45.091L99.1948 47.4318L96.0736 49.5126H90.8717L89.3112 48.4722L86.9703 46.1314L85.9299 44.3107V41.4497L86.9703 38.8487L89.3112 37.028L90.8717 36.2478Z" stroke="black" stroke-width="4"/>
<path d="M28.4394 39.399C27.8681 39.2478 26.0107 40.0503 25.8385 40.4394C25.6663 40.8285 25.2874 42.5102 27.399 42.7803C29.5107 43.0503 29.5107 43.0503 30 42C30.4893 40.9497 29.0107 39.5503 28.4394 39.399Z" fill="white"/>
<path d="M93 39C91.4323 38.8285 90.8431 39.0878 90.0915 39.8891C89.5716 40.4433 89.5 41 89.5 41.5C89.5 42 90 43 92.5 42.5C95 42 95 40 95 40C95 40 94.5677 39.1715 93 39Z" fill="white"/>
<path d="M28.4394 39.399C27.8681 39.2478 26.0107 40.0503 25.8385 40.4394C25.6663 40.8285 25.2874 42.5102 27.399 42.7803C29.5107 43.0503 29.5107 43.0503 30 42C30.4893 40.9497 29.0107 39.5503 28.4394 39.399Z" stroke="#FF7575"/>
<path d="M93 39C91.4323 38.8285 90.8431 39.0878 90.0915 39.8891C89.5716 40.4433 89.5 41 89.5 41.5C89.5 42 90 43 92.5 42.5C95 42 95 40 95 40C95 40 94.5677 39.1715 93 39Z" stroke="#FF7575"/>
</svg>
