<svg width="107" height="61" viewBox="0 0 107 61" fill="none" xmlns="http://www.w3.org/2000/svg">
<path fill-rule="evenodd" clip-rule="evenodd" d="M17.062 18.1725C15.935 16.0795 16.6384 2.16344 17.062 1.99236C17.4855 1.82129 31.0687 13.3426 33.0006 13.3426C34.9326 13.3426 45.5583 12.6181 45.5583 12.6181L54.4936 8.02973L53.0447 12.6181L58.116 8.99571L56.6671 12.6181L60.2895 10.4447L59.3235 13.3426C59.3235 13.3426 73.0887 14.7916 74.2962 14.5501C75.5036 14.3086 86.2255 1.83827 87.0954 1.99236C87.9653 2.14646 90.7178 18.897 90.7178 18.897C90.7178 18.897 94.6488 23.9684 98.4456 37.7336L103.517 43.7709H98.9286L103.517 48.3593H98.9286L104 52.7062H96.0307L6.67771 58.0191L2.33081 58.7436L5.95323 52.2232L4.02127 52.7062L7.4022 47.3933L2.8138 47.8763L7.4022 40.6315L17.062 18.1725Z" fill="#FFEAFE" stroke="black" stroke-width="2"/>
<path d="M45.0411 45.5389C45.0411 45.5389 46.9466 47.5531 49.2672 47.4978C51.5877 47.4425 53.3951 45.3399 53.3951 45.3399C53.3951 45.3399 55.7647 47.343 57.6212 47.2987C59.4776 47.2545 61.285 45.1519 61.285 45.1519" stroke="black"/>
<path d="M32.9708 29.3677L29.2569 28.4392L32.0424 34.0101L34.8278 35.4028H36.2205L38.5418 34.0101V31.2246L36.2205 29.3677H32.9708Z" fill="black" stroke="black"/>
<path d="M73.8243 29.3677L77.5382 28.4392L74.7528 34.0101L71.9673 35.4028H70.5746L68.2533 34.0101V31.2246L70.5746 29.3677H73.8243Z" fill="black" stroke="black"/>
<path d="M71.0387 30.2961L70.1102 31.2246V31.6889L71.0387 32.1531H71.9672L72.8957 31.6889V31.2246L71.9672 30.2961H71.0387Z" fill="white"/>
<path d="M56.1814 38.6525C55.2514 38.1883 51.5406 38.4527 50.6121 38.7848C49.6836 39.1168 50.6451 40.1771 50.6451 40.1771L53.4959 42.8957L56.2145 40.0449C56.2145 40.0449 57.1115 39.1168 56.1814 38.6525Z" fill="#FDB2F9" stroke="black"/>
<path d="M33.8993 30.2961L32.9708 31.2246V31.6889L33.8993 32.1531H34.8278L35.7563 31.6889V31.2246L34.8278 30.2961H33.8993Z" fill="white"/>
</svg>
